<?xml version="1.0" encoding="UTF-8"?><svg id="Layer_1" xmlns="http://www.w3.org/2000/svg" xmlns:xlink="http://www.w3.org/1999/xlink" viewBox="0 0 586.51 606.97"><defs><style>.cls-1{clip-path:url(#clippath);}.cls-2{fill:none;}.cls-2,.cls-3{stroke-width:0px;}.cls-4{clip-path:url(#clippath-1);}.cls-3{fill:#fff;}</style><clipPath id="clippath"><rect class="cls-2" width="586.51" height="606.97"/></clipPath><clipPath id="clippath-1"><rect class="cls-2" width="586.51" height="606.97"/></clipPath></defs><g class="cls-1"><path class="cls-3" d="m176.07,337.23c11.5,0,20.9-4.71,28.2-14.13l15,15.99c-11.9,13.87-25.93,20.8-42.08,20.8s-29.46-5.28-39.91-15.84c-10.45-10.56-15.68-23.88-15.68-39.98s5.33-29.52,15.98-40.29c10.65-10.76,23.68-16.15,39.08-16.15,17.2,0,31.6,6.78,43.21,20.34l-14.55,17.08c-7.4-9.52-16.6-14.28-27.6-14.28-8.8,0-16.33,2.98-22.58,8.93-6.25,5.95-9.38,13.97-9.38,24.07s2.95,18.19,8.85,24.3c5.9,6.11,13.05,9.16,21.45,9.16"/></g><polygon class="cls-3" points="237.73 358.65 237.73 250.13 261.14 250.13 261.14 337.07 305.84 337.07 305.84 358.65 237.73 358.65"/><rect class="cls-3" x="322.94" y="250.13" width="23.4" height="108.52"/><g class="cls-4"><path class="cls-3" d="m372.15,250.13h23.4v44.56l39.61-44.56h28.95l-41.71,47.97c3.6,5.18,10.25,14.83,19.95,28.95,9.7,14.13,16.95,24.66,21.75,31.6h-27.3l-30.75-42.85-10.5,12.11v30.74h-23.4v-108.52Z"/></g><path class="cls-3" d="m58.65,60.7h469.21v485.58H58.65V60.7ZM0,606.97h586.51V0H0v606.97Z"/></svg>