<svg xmlns="http://www.w3.org/2000/svg" viewBox="0 0 246 62" width="246" height="62">
  <!-- GCS Logo (light background) — Outfit font converted to paths -->
  <!-- GCS lettermark -->
  <path d="M410 -12Q327 -12 256.5 15.5Q186 43 133.5 93.0Q81 143 52.0 210.0Q23 277 23 356Q23 436 53.5 503.0Q84 570 138.5 619.5Q193 669 265.0 696.5Q337 724 419 724Q518 724 596.5 690.0Q675 656 724 598L589 463Q552 506 512.0 527.0Q472 548 416 548Q363 548 320.0 524.5Q277 501 251.5 458.0Q226 415 226 357Q226 299 249.5 255.5Q273 212 315.0 188.0Q357 164 413 164Q467 164 504.0 185.0Q541 206 560.5 245.0Q580 284 580 337L717 250L386 260V420H781V390Q781 262 734.5 172.0Q688 82 604.5 35.0Q521 -12 410 -12Z" transform="translate(0.00,50.00) scale(0.052000,-0.052000)" fill="#0F172A"/>
  <path d="M411 -12Q329 -12 258.5 15.5Q188 43 135.0 93.0Q82 143 52.5 210.5Q23 278 23 357Q23 437 52.5 504.0Q82 571 134.5 620.0Q187 669 257.0 696.5Q327 724 409 724Q492 724 561.0 698.0Q630 672 681 626L548 492Q524 518 489.5 533.0Q455 548 409 548Q369 548 335.5 535.0Q302 522 278.0 497.0Q254 472 240.5 436.5Q227 401 227 357Q227 312 240.5 276.5Q254 241 278.0 216.0Q302 191 335.5 177.5Q369 164 409 164Q454 164 489.5 178.0Q525 192 551 219L685 85Q632 39 566.0 13.5Q500 -12 411 -12Z" transform="translate(44.44,50.00) scale(0.052000,-0.052000)" fill="#0F172A"/>
  <path d="M289 -12Q198 -12 130.5 14.5Q63 41 6 99L131 224Q170 187 213.0 167.5Q256 148 305 148Q346 148 367.0 160.5Q388 173 388 195Q388 217 370.0 231.5Q352 246 322.5 257.5Q293 269 257.5 281.0Q222 293 187.0 310.0Q152 327 122.5 351.5Q93 376 75.0 412.5Q57 449 57 502Q57 571 90.0 621.0Q123 671 183.0 697.5Q243 724 324 724Q404 724 472.5 698.5Q541 673 586 626L460 501Q427 533 394.0 548.5Q361 564 322 564Q291 564 272.5 554.0Q254 544 254 524Q254 503 272.0 489.5Q290 476 319.5 465.0Q349 454 384.5 442.0Q420 430 455.0 413.5Q490 397 519.5 371.5Q549 346 567.0 308.0Q585 270 585 216Q585 107 507.5 47.5Q430 -12 289 -12Z" transform="translate(83.58,50.00) scale(0.052000,-0.052000)" fill="#0F172A"/>
  <!-- Stage colour divider bar -->
  <rect x="128" y="1" width="4" height="9" rx="2" ry="2" fill="#E8956A"/>
  <rect x="128" y="11" width="4" height="9" rx="2" ry="2" fill="#D4A843"/>
  <rect x="128" y="21" width="4" height="9" rx="2" ry="2" fill="#5B9A6B"/>
  <rect x="128" y="31" width="4" height="9" rx="2" ry="2" fill="#4E97A8"/>
  <rect x="128" y="41" width="4" height="9" rx="2" ry="2" fill="#6574B8"/>
  <rect x="128" y="51" width="4" height="9" rx="2" ry="2" fill="#8B6EAF"/>
  <!-- GLOBAL CLIMBING STANDARD -->
  <path d="M401 -11Q323.5 -11 256.25 16.75Q189 44.5 138.75 94.25Q88.5 144 60.25 210.25Q32 276.5 32 353.5Q32 431 61.0 497.0Q90 563 141.5 612.5Q193 662 261.75 689.5Q330.5 717 409.5 717Q500.5 717 575.25 684.0Q650 651 698.5 592.5L592 486Q558 529.5 512.0 551.75Q466 574 408 574Q345.5 574 296.75 546.5Q248 519 220.25 469.5Q192.5 420 192.5 354Q192.5 288 219.5 238.0Q246.5 188 293.5 160.0Q340.5 132 401.5 132Q463.5 132 507.25 155.25Q551 178.5 574.25 223.25Q597.5 268 597.5 331.5L702 262L387 267V399.5H757.5V376.5Q757.5 250 712.0 163.5Q666.5 77 586.25 33.0Q506 -11 401 -11Z" transform="translate(144.00,20.00) scale(0.013000,-0.013000)" fill="#0F172A"/>
  <path d="M67.5 0V706H225V0ZM188.5 0V137.5H538V0Z" transform="translate(156.70,20.00) scale(0.013000,-0.013000)" fill="#0F172A"/>
  <path d="M404.5 -12Q325 -12 257.25 16.0Q189.5 44 138.75 93.75Q88 143.5 59.75 210.25Q31.5 277 31.5 354Q31.5 431.5 59.5 497.5Q87.5 563.5 137.75 613.25Q188 663 255.5 690.5Q323 718 402.5 718Q482 718 549.5 690.5Q617 663 667.5 613.25Q718 563.5 746.0 497.0Q774 430.5 774 353Q774 276 746.0 209.5Q718 143 667.75 93.25Q617.5 43.5 550.25 15.75Q483 -12 404.5 -12ZM402.5 131Q466 131 513.25 159.0Q560.5 187 586.75 237.25Q613 287.5 613 354Q613 403.5 598.0 444.0Q583 484.5 555.0 514.0Q527 543.5 488.5 559.25Q450 575 402.5 575Q339.5 575 292.25 547.5Q245 520 218.75 470.25Q192.5 420.5 192.5 354Q192.5 304 207.5 262.75Q222.5 221.5 250.25 192.25Q278 163 316.75 147.0Q355.5 131 402.5 131Z" transform="translate(166.49,20.00) scale(0.013000,-0.013000)" fill="#0F172A"/>
  <path d="M188 0V122H354Q399.5 122 425.5 148.75Q451.5 175.5 451.5 215Q451.5 241.5 439.75 262.75Q428 284 406.25 296.0Q384.5 308 354 308H188V427H341Q379.5 427 403.5 446.5Q427.5 466 427.5 505.5Q427.5 545 403.5 564.5Q379.5 584 341 584H188V706H370.5Q438.5 706 486.25 680.75Q534 655.5 559.0 613.75Q584 572 584 521Q584 455.5 541.75 410.5Q499.5 365.5 418 349L421.5 401.5Q511 384.5 559.5 332.5Q608 280.5 608 204.5Q608 146.5 579.25 100.25Q550.5 54 497.0 27.0Q443.5 0 369 0ZM67.5 0V706H223V0Z" transform="translate(179.47,20.00) scale(0.013000,-0.013000)" fill="#0F172A"/>
  <path d="M15 0 294.5 706H436.5L713.5 0H547.5L336 586H393L178 0ZM174 127.5V255.5H558.5V127.5Z" transform="translate(190.30,20.00) scale(0.013000,-0.013000)" fill="#0F172A"/>
  <path d="M67.5 0V706H225V0ZM188.5 0V137.5H538V0Z" transform="translate(202.27,20.00) scale(0.013000,-0.013000)" fill="#0F172A"/>
  <path d="M402.5 -11Q323.5 -11 256.0 16.5Q188.5 44 138.0 93.75Q87.5 143.5 59.75 210.0Q32 276.5 32 353.5Q32 431 59.75 497.25Q87.5 563.5 137.75 612.5Q188 661.5 255.25 689.25Q322.5 717 401.5 717Q485.5 717 551.0 690.0Q616.5 663 666 616L560.5 510Q533 540 493.5 557.0Q454 574 401.5 574Q355.5 574 317.25 558.5Q279 543 251.25 513.75Q223.5 484.5 208.25 443.75Q193 403 193 353.5Q193 303.5 208.25 262.75Q223.5 222 251.25 192.75Q279 163.5 317.25 147.75Q355.5 132 401.5 132Q456 132 496.0 148.75Q536 165.5 564.5 196L670.5 90Q620 42.5 554.5 15.75Q489 -11 402.5 -11Z" transform="translate(144.00,36.00) scale(0.013000,-0.013000)" fill="#0F172A"/>
  <path d="M67.5 0V706H225V0ZM188.5 0V137.5H538V0Z" transform="translate(155.46,36.00) scale(0.013000,-0.013000)" fill="#0F172A"/>
  <path d="M67.5 0V706H225V0Z" transform="translate(165.25,36.00) scale(0.013000,-0.013000)" fill="#0F172A"/>
  <path d="M67.5 0V706H180L458 272.5H400.5L678 706H790.5V0H634V441L661.5 433.5L481 152H377L197 433.5L224 441V0Z" transform="translate(171.55,36.00) scale(0.013000,-0.013000)" fill="#0F172A"/>
  <path d="M188 0V122H354Q399.5 122 425.5 148.75Q451.5 175.5 451.5 215Q451.5 241.5 439.75 262.75Q428 284 406.25 296.0Q384.5 308 354 308H188V427H341Q379.5 427 403.5 446.5Q427.5 466 427.5 505.5Q427.5 545 403.5 564.5Q379.5 584 341 584H188V706H370.5Q438.5 706 486.25 680.75Q534 655.5 559.0 613.75Q584 572 584 521Q584 455.5 541.75 410.5Q499.5 365.5 418 349L421.5 401.5Q511 384.5 559.5 332.5Q608 280.5 608 204.5Q608 146.5 579.25 100.25Q550.5 54 497.0 27.0Q443.5 0 369 0ZM67.5 0V706H223V0Z" transform="translate(185.21,36.00) scale(0.013000,-0.013000)" fill="#0F172A"/>
  <path d="M67.5 0V706H225V0Z" transform="translate(196.03,36.00) scale(0.013000,-0.013000)" fill="#0F172A"/>
  <path d="M67.5 0V706H177.5L225 565V0ZM555 0 139 533 177.5 706 593.5 173ZM555 0 512.5 140.5V706H670V0Z" transform="translate(202.34,36.00) scale(0.013000,-0.013000)" fill="#0F172A"/>
  <path d="M401 -11Q323.5 -11 256.25 16.75Q189 44.5 138.75 94.25Q88.5 144 60.25 210.25Q32 276.5 32 353.5Q32 431 61.0 497.0Q90 563 141.5 612.5Q193 662 261.75 689.5Q330.5 717 409.5 717Q500.5 717 575.25 684.0Q650 651 698.5 592.5L592 486Q558 529.5 512.0 551.75Q466 574 408 574Q345.5 574 296.75 546.5Q248 519 220.25 469.5Q192.5 420 192.5 354Q192.5 288 219.5 238.0Q246.5 188 293.5 160.0Q340.5 132 401.5 132Q463.5 132 507.25 155.25Q551 178.5 574.25 223.25Q597.5 268 597.5 331.5L702 262L387 267V399.5H757.5V376.5Q757.5 250 712.0 163.5Q666.5 77 586.25 33.0Q506 -11 401 -11Z" transform="translate(214.42,36.00) scale(0.013000,-0.013000)" fill="#0F172A"/>
  <path d="M280 -11Q193 -11 130.25 17.25Q67.5 45.5 16 103.5L117.5 205Q151.5 165.5 193.0 144.0Q234.5 122.5 290 122.5Q339.5 122.5 367.25 140.75Q395 159 395 191Q395 219.5 377.0 237.75Q359 256 329.5 269.0Q300 282 264.5 293.75Q229 305.5 193.75 321.25Q158.5 337 129.0 360.25Q99.5 383.5 81.5 419.25Q63.5 455 63.5 508.5Q63.5 574 95.25 620.75Q127 667.5 183.0 692.25Q239 717 311.5 717Q386 717 447.5 690.75Q509 664.5 548.5 620L446.5 518.5Q415 551.5 382.25 567.5Q349.5 583.5 309 583.5Q267.5 583.5 243.5 568.0Q219.5 552.5 219.5 523.5Q219.5 497 237.5 480.5Q255.5 464 285.0 451.75Q314.5 439.5 350.0 427.5Q385.5 415.5 420.75 399.75Q456 384 485.5 359.5Q515 335 533.0 297.5Q551 260 551 205Q551 103.5 479.0 46.25Q407 -11 280 -11Z" transform="translate(144.00,52.00) scale(0.013000,-0.013000)" fill="#0F172A"/>
  <path d="M240.5 0V696H398V0ZM20 568.5V706H619V568.5Z" transform="translate(154.07,52.00) scale(0.013000,-0.013000)" fill="#0F172A"/>
  <path d="M15 0 294.5 706H436.5L713.5 0H547.5L336 586H393L178 0ZM174 127.5V255.5H558.5V127.5Z" transform="translate(164.88,52.00) scale(0.013000,-0.013000)" fill="#0F172A"/>
  <path d="M67.5 0V706H177.5L225 565V0ZM555 0 139 533 177.5 706 593.5 173ZM555 0 512.5 140.5V706H670V0Z" transform="translate(176.85,52.00) scale(0.013000,-0.013000)" fill="#0F172A"/>
  <path d="M174 0V137.5H349Q413 137.5 460.75 163.25Q508.5 189 534.75 237.75Q561 286.5 561 354Q561 421 534.25 469.0Q507.5 517 460.0 542.75Q412.5 568.5 349 568.5H169V706H350.5Q430.5 706 498.25 680.25Q566 654.5 616.25 607.25Q666.5 560 694.25 495.5Q722 431 722 353Q722 275.5 694.25 210.75Q666.5 146 616.5 98.75Q566.5 51.5 499.0 25.75Q431.5 0 352.5 0ZM67.5 0V706H225V0Z" transform="translate(188.94,52.00) scale(0.013000,-0.013000)" fill="#0F172A"/>
  <path d="M15 0 294.5 706H436.5L713.5 0H547.5L336 586H393L178 0ZM174 127.5V255.5H558.5V127.5Z" transform="translate(201.24,52.00) scale(0.013000,-0.013000)" fill="#0F172A"/>
  <path d="M188 290.5V407H337Q384 407 409.5 430.75Q435 454.5 435 495.5Q435 534 409.75 559.0Q384.5 584 337.5 584H188V706H356Q426 706 479.0 679.25Q532 652.5 561.75 605.75Q591.5 559 591.5 498Q591.5 435.5 561.5 389.0Q531.5 342.5 477.5 316.5Q423.5 290.5 351 290.5ZM67.5 0V706H225V0ZM451.5 0 232 304 375.5 343 637.5 0Z" transform="translate(213.21,52.00) scale(0.013000,-0.013000)" fill="#0F172A"/>
  <path d="M174 0V137.5H349Q413 137.5 460.75 163.25Q508.5 189 534.75 237.75Q561 286.5 561 354Q561 421 534.25 469.0Q507.5 517 460.0 542.75Q412.5 568.5 349 568.5H169V706H350.5Q430.5 706 498.25 680.25Q566 654.5 616.25 607.25Q666.5 560 694.25 495.5Q722 431 722 353Q722 275.5 694.25 210.75Q666.5 146 616.5 98.75Q566.5 51.5 499.0 25.75Q431.5 0 352.5 0ZM67.5 0V706H225V0Z" transform="translate(224.18,52.00) scale(0.013000,-0.013000)" fill="#0F172A"/>
</svg>
