<svg xmlns="http://www.w3.org/2000/svg" viewBox="0 0 95 58" width="95" height="58">
  <!-- GCS Mono White Logo — Outfit font converted to paths -->
  <path d="M410 -12Q327 -12 256.5 15.5Q186 43 133.5 93.0Q81 143 52.0 210.0Q23 277 23 356Q23 436 53.5 503.0Q84 570 138.5 619.5Q193 669 265.0 696.5Q337 724 419 724Q518 724 596.5 690.0Q675 656 724 598L589 463Q552 506 512.0 527.0Q472 548 416 548Q363 548 320.0 524.5Q277 501 251.5 458.0Q226 415 226 357Q226 299 249.5 255.5Q273 212 315.0 188.0Q357 164 413 164Q467 164 504.0 185.0Q541 206 560.5 245.0Q580 284 580 337L717 250L386 260V420H781V390Q781 262 734.5 172.0Q688 82 604.5 35.0Q521 -12 410 -12Z" transform="translate(0.00,46.00) scale(0.042000,-0.042000)" fill="#ffffff"/>
  <path d="M411 -12Q329 -12 258.5 15.5Q188 43 135.0 93.0Q82 143 52.5 210.5Q23 278 23 357Q23 437 52.5 504.0Q82 571 134.5 620.0Q187 669 257.0 696.5Q327 724 409 724Q492 724 561.0 698.0Q630 672 681 626L548 492Q524 518 489.5 533.0Q455 548 409 548Q369 548 335.5 535.0Q302 522 278.0 497.0Q254 472 240.5 436.5Q227 401 227 357Q227 312 240.5 276.5Q254 241 278.0 216.0Q302 191 335.5 177.5Q369 164 409 164Q454 164 489.5 178.0Q525 192 551 219L685 85Q632 39 566.0 13.5Q500 -12 411 -12Z" transform="translate(35.47,46.00) scale(0.042000,-0.042000)" fill="#ffffff"/>
  <path d="M289 -12Q198 -12 130.5 14.5Q63 41 6 99L131 224Q170 187 213.0 167.5Q256 148 305 148Q346 148 367.0 160.5Q388 173 388 195Q388 217 370.0 231.5Q352 246 322.5 257.5Q293 269 257.5 281.0Q222 293 187.0 310.0Q152 327 122.5 351.5Q93 376 75.0 412.5Q57 449 57 502Q57 571 90.0 621.0Q123 671 183.0 697.5Q243 724 324 724Q404 724 472.5 698.5Q541 673 586 626L460 501Q427 533 394.0 548.5Q361 564 322 564Q291 564 272.5 554.0Q254 544 254 524Q254 503 272.0 489.5Q290 476 319.5 465.0Q349 454 384.5 442.0Q420 430 455.0 413.5Q490 397 519.5 371.5Q549 346 567.0 308.0Q585 270 585 216Q585 107 507.5 47.5Q430 -12 289 -12Z" transform="translate(66.66,46.00) scale(0.042000,-0.042000)" fill="#ffffff"/>
  <!-- Horizontal bar in white at 50% opacity -->
  <rect x="0"  y="53" width="15" height="3" rx="1.5" ry="1.5" fill="#ffffff" opacity="0.5"/>
  <rect x="16" y="53" width="15" height="3" rx="1.5" ry="1.5" fill="#ffffff" opacity="0.5"/>
  <rect x="32" y="53" width="15" height="3" rx="1.5" ry="1.5" fill="#ffffff" opacity="0.5"/>
  <rect x="48" y="53" width="15" height="3" rx="1.5" ry="1.5" fill="#ffffff" opacity="0.5"/>
  <rect x="64" y="53" width="15" height="3" rx="1.5" ry="1.5" fill="#ffffff" opacity="0.5"/>
  <rect x="80" y="53" width="15" height="3" rx="1.5" ry="1.5" fill="#ffffff" opacity="0.5"/>
</svg>
